<svg xmlns="http://www.w3.org/2000/svg" width="1200" height="630" viewBox="0 0 1200 630" role="img" aria-labelledby="title desc">
  <title id="title">RetireShield Retirement Safety Score</title>
  <desc id="desc">RetireShield helps families check retirement risks with a plain-English Safety Score.</desc>
  <rect width="1200" height="630" fill="#f7f9fc"/>
  <circle cx="1020" cy="70" r="330" fill="#eef3f9"/>
  <circle cx="160" cy="560" r="260" fill="#dfeaf6"/>
  <rect x="92" y="86" width="1016" height="458" rx="46" fill="#fff" stroke="#d5dee9" stroke-width="3"/>
  <g transform="translate(150 145)">
    <rect width="92" height="92" rx="28" fill="#163A66"/>
    <path d="M46 17 20 28v19c0 17 10.8 32.1 26 38 15.2-5.9 26-21 26-38V28L46 17Z" fill="none" stroke="#fff" stroke-width="7" stroke-linecap="round" stroke-linejoin="round"/>
    <path d="m34 48 9 9 18-24" fill="none" stroke="#fff" stroke-width="7" stroke-linecap="round" stroke-linejoin="round"/>
  </g>
  <text x="270" y="183" fill="#1A2230" font-family="Inter, Arial, sans-serif" font-size="48" font-weight="800">RetireShield</text>
  <text x="150" y="290" fill="#1A2230" font-family="Georgia, serif" font-size="72" font-weight="700">Your Retirement</text>
  <text x="150" y="374" fill="#1A2230" font-family="Georgia, serif" font-size="72" font-weight="700">Safety Score</text>
  <text x="150" y="444" fill="#475569" font-family="Inter, Arial, sans-serif" font-size="30" font-weight="650">A plain-English checkup for income, spending, scams,</text>
  <text x="150" y="486" fill="#475569" font-family="Inter, Arial, sans-serif" font-size="30" font-weight="650">Medicare, Social Security, and market risk.</text>
  <g transform="translate(830 202)">
    <circle cx="112" cy="112" r="112" fill="#1D4E89"/>
    <circle cx="112" cy="112" r="86" fill="#fff"/>
    <text x="112" y="123" text-anchor="middle" fill="#1A2230" font-family="Inter, Arial, sans-serif" font-size="68" font-weight="900">82</text>
    <text x="112" y="158" text-anchor="middle" fill="#475569" font-family="Inter, Arial, sans-serif" font-size="22" font-weight="800">Mostly secure</text>
  </g>
</svg>
